<svg xmlns="http://www.w3.org/2000/svg" xmlns:xlink="http://www.w3.org/1999/xlink" width="175" zoomAndPan="magnify" viewBox="0 0 150 37.5" height="50" preserveAspectRatio="xMidYMid meet" version="1.0"><defs><g/><clipPath id="id1"><path d="M 4 9.160156 L 25 9.160156 L 25 27.664062 L 4 27.664062 Z M 4 9.160156 " clip-rule="nonzero"/></clipPath><clipPath id="id2"><path d="M 2.851562 21 L 5 21 L 5 26 L 2.851562 26 Z M 2.851562 21 " clip-rule="nonzero"/></clipPath><clipPath id="id3"><path d="M 25 21 L 26.535156 21 L 26.535156 26 L 25 26 Z M 25 21 " clip-rule="nonzero"/></clipPath></defs><g fill="#a6d3ed" fill-opacity="1"><g transform="translate(28.834131, 27.139514)"><g><path d="M 5.167969 0.398438 C 9.484375 0.398438 12.015625 -1.4375 12.015625 -4.796875 C 12.015625 -9.140625 6.046875 -9.191406 6.046875 -10.738281 C 6.046875 -11.03125 6.128906 -11.21875 6.128906 -11.21875 C 6.714844 -11.351562 7.40625 -11.402344 8.019531 -11.402344 C 9.007812 -11.402344 10.257812 -11.164062 11.242188 -10.632812 C 11.9375 -11.589844 12.523438 -12.84375 12.84375 -14.015625 C 11.695312 -14.707031 10.179688 -15.054688 8.445312 -15.054688 C 4.261719 -15.054688 1.652344 -13.214844 1.652344 -9.859375 C 1.652344 -5.621094 7.621094 -5.570312 7.621094 -3.917969 C 7.621094 -3.625 7.539062 -3.4375 7.539062 -3.4375 C 7.140625 -3.304688 6.316406 -3.25 5.570312 -3.25 C 4.261719 -3.25 2.664062 -3.648438 1.8125 -4.421875 C 1.09375 -3.625 0.558594 -2 0.292969 -0.90625 C 1.253906 -0.078125 3.0625 0.398438 5.167969 0.398438 Z M 5.167969 0.398438 "/></g></g></g><g fill="#a6d3ed" fill-opacity="1"><g transform="translate(41.676904, 27.139514)"><g><path d="M 0.398438 0.105469 C 2.183594 0.371094 3.890625 0.160156 4.53125 -0.105469 L 5.328125 -4.503906 L 6.5 -4.503906 C 11.21875 -4.503906 13.695312 -6.609375 13.695312 -10.605469 C 13.695312 -13.347656 11.804688 -14.949219 8.417969 -14.949219 C 6.101562 -14.949219 4.023438 -14.628906 2.664062 -14.253906 C 1.917969 -9.007812 1.171875 -4.261719 0.398438 0.105469 Z M 5.914062 -7.941406 L 6.527344 -11.351562 C 6.527344 -11.351562 6.925781 -11.402344 7.378906 -11.402344 C 8.578125 -11.402344 9.191406 -10.949219 9.191406 -9.992188 C 9.191406 -9.324219 9.007812 -8.710938 8.660156 -8.179688 C 8.234375 -8.019531 7.699219 -7.941406 7.085938 -7.941406 Z M 5.914062 -7.941406 "/></g></g></g><g fill="#a6d3ed" fill-opacity="1"><g transform="translate(55.132497, 27.139514)"><g><path d="M 7.699219 0.398438 C 13.1875 0.398438 16.414062 -2.957031 16.414062 -8.605469 C 16.414062 -12.097656 14.308594 -15.027344 9.753906 -15.027344 C 4.238281 -15.027344 1.011719 -11.671875 1.011719 -5.996094 C 1.011719 -2.53125 3.089844 0.398438 7.699219 0.398438 Z M 8.417969 -3.144531 C 6.582031 -3.144531 5.515625 -4.371094 5.515625 -6.394531 C 5.515625 -7.941406 5.941406 -9.566406 6.792969 -11.085938 C 7.59375 -11.378906 8.152344 -11.484375 9.007812 -11.484375 C 10.84375 -11.484375 11.910156 -10.257812 11.910156 -8.234375 C 11.910156 -6.6875 11.484375 -5.0625 10.632812 -3.542969 C 9.832031 -3.25 9.273438 -3.144531 8.417969 -3.144531 Z M 8.417969 -3.144531 "/></g></g></g><g fill="#a6d3ed" fill-opacity="1"><g transform="translate(71.865401, 27.139514)"><g><path d="M 3.945312 0.105469 C 5.730469 0.371094 7.40625 0.160156 8.074219 -0.105469 L 10.019531 -11.058594 L 14.148438 -11.058594 C 14.546875 -12.042969 14.816406 -13.667969 14.789062 -14.628906 L 2.238281 -14.628906 C 1.839844 -13.667969 1.570312 -12.042969 1.597656 -11.058594 L 5.753906 -11.058594 C 5.328125 -8.285156 4.554688 -3.464844 3.945312 0.105469 Z M 3.945312 0.105469 "/></g></g></g><g fill="#a6d3ed" fill-opacity="1"><g transform="translate(85.587441, 27.139514)"><g><path d="M 12.148438 -14.09375 C 11.9375 -12.230469 11.511719 -9.378906 11.085938 -6.769531 L 7.195312 -14.734375 C 5.808594 -14.839844 4.050781 -14.628906 2.636719 -14.148438 C 1.917969 -9.007812 1.144531 -4.261719 0.371094 0.105469 C 1.917969 0.371094 3.597656 0.160156 4.238281 -0.0546875 L 5.730469 -8.417969 L 9.886719 0.1875 C 10.816406 0.347656 12.949219 0.292969 13.773438 0 L 16.359375 -14.679688 C 15.242188 -14.789062 13.5625 -14.574219 12.148438 -14.09375 Z M 12.148438 -14.09375 "/></g></g></g><g fill="#a6d3ed" fill-opacity="1"><g transform="translate(101.520999, 27.139514)"><g><path d="M 7.699219 0.398438 C 13.1875 0.398438 16.414062 -2.957031 16.414062 -8.605469 C 16.414062 -12.097656 14.308594 -15.027344 9.753906 -15.027344 C 4.238281 -15.027344 1.011719 -11.671875 1.011719 -5.996094 C 1.011719 -2.53125 3.089844 0.398438 7.699219 0.398438 Z M 8.417969 -3.144531 C 6.582031 -3.144531 5.515625 -4.371094 5.515625 -6.394531 C 5.515625 -7.941406 5.941406 -9.566406 6.792969 -11.085938 C 7.59375 -11.378906 8.152344 -11.484375 9.007812 -11.484375 C 10.84375 -11.484375 11.910156 -10.257812 11.910156 -8.234375 C 11.910156 -6.6875 11.484375 -5.0625 10.632812 -3.542969 C 9.832031 -3.25 9.273438 -3.144531 8.417969 -3.144531 Z M 8.417969 -3.144531 "/></g></g></g><g fill="#a6d3ed" fill-opacity="1"><g transform="translate(118.253899, 27.139514)"><g><path d="M 3.945312 0.105469 C 5.730469 0.371094 7.40625 0.160156 8.074219 -0.105469 L 10.019531 -11.058594 L 14.148438 -11.058594 C 14.546875 -12.042969 14.816406 -13.667969 14.789062 -14.628906 L 2.238281 -14.628906 C 1.839844 -13.667969 1.570312 -12.042969 1.597656 -11.058594 L 5.753906 -11.058594 C 5.328125 -8.285156 4.554688 -3.464844 3.945312 0.105469 Z M 3.945312 0.105469 "/></g></g></g><g fill="#a6d3ed" fill-opacity="1"><g transform="translate(131.975939, 27.139514)"><g><path d="M 0.425781 0 L 11.136719 0 C 11.511719 -0.960938 11.804688 -2.585938 11.777344 -3.570312 L 5.167969 -3.570312 L 5.488281 -5.515625 L 11.085938 -5.515625 C 11.484375 -6.5 11.75 -8.019531 11.695312 -8.980469 L 6.101562 -8.980469 L 6.476562 -11.058594 L 12.734375 -11.058594 C 13.136719 -12.042969 13.402344 -13.667969 13.375 -14.628906 L 7.167969 -14.628906 C 5.089844 -14.628906 3.917969 -14.46875 2.636719 -14.121094 C 1.945312 -9.007812 1.171875 -4.261719 0.425781 0 Z M 0.425781 0 "/></g></g></g><path stroke-linecap="butt" transform="matrix(0.740132, 0, 0, 0.740132, 12.92766, 5.458149)" fill="none" stroke-linejoin="miter" d="M 27.299407 29.538214 C 33.126074 29.538214 36.546074 27.057658 36.546074 22.524047 C 36.546074 16.64988 28.486907 16.581269 28.486907 14.491269 C 28.486907 14.095435 28.592462 13.84738 28.592462 13.84738 C 29.384129 13.662658 30.323574 13.594046 31.146907 13.594046 C 32.476907 13.594046 34.171074 13.915991 35.506352 14.639047 C 36.440518 13.335435 37.232185 11.651824 37.659685 10.068491 C 36.113296 9.129046 34.065518 8.664602 31.722185 8.664602 C 26.069685 8.664602 22.544129 11.13988 22.544129 15.673491 C 22.544129 21.405158 30.603296 21.479047 30.603296 23.711547 C 30.603296 24.102102 30.49774 24.360714 30.49774 24.360714 C 29.964685 24.53488 28.845796 24.603491 27.83774 24.603491 C 26.069685 24.603491 23.916351 24.070436 22.765795 23.025436 C 21.789407 24.102102 21.066351 26.302936 20.707462 27.780714 C 22.011073 28.894325 24.454684 29.538214 27.299407 29.538214 Z M 38.198018 29.14238 C 40.615241 29.501269 42.92163 29.221547 43.781907 28.85738 L 44.863852 22.91988 L 46.447185 22.91988 C 52.817463 22.91988 56.163575 20.06988 56.163575 14.675991 C 56.163575 10.965713 53.614408 8.801824 49.038574 8.801824 C 45.908852 8.801824 43.095796 9.234602 41.269685 9.741269 C 40.256352 16.834602 39.248296 23.241825 38.198018 29.14238 Z M 45.655519 18.270158 L 46.489408 13.662658 C 46.489408 13.662658 47.022463 13.594046 47.639963 13.594046 C 49.254963 13.594046 50.083574 14.206269 50.083574 15.499324 C 50.083574 16.396547 49.830241 17.230436 49.360519 17.953491 C 48.790519 18.164602 48.072741 18.270158 47.24413 18.270158 Z M 66.249408 29.538214 C 73.669964 29.538214 78.018853 24.999325 78.018853 17.372936 C 78.018853 12.654602 75.179409 8.696269 69.020242 8.696269 C 61.568019 8.696269 57.213852 13.22988 57.213852 20.898491 C 57.213852 25.57988 60.02163 29.538214 66.249408 29.538214 Z M 67.215242 24.756547 C 64.739964 24.756547 63.299131 23.094047 63.299131 20.360158 C 63.299131 18.270158 63.869131 16.07988 65.019686 14.021547 C 66.101631 13.625713 66.856353 13.488491 68.006908 13.488491 C 70.49802 13.488491 71.938853 15.140435 71.938853 17.874324 C 71.938853 19.964325 71.358298 22.15988 70.207742 24.207658 C 69.125797 24.603491 68.371075 24.756547 67.215242 24.756547 Z M 83.776909 29.14238 C 86.194131 29.501269 88.463576 29.221547 89.360798 28.85738 L 91.989132 14.058491 L 97.567743 14.058491 C 98.106076 12.733769 98.464965 10.532935 98.428021 9.234602 L 81.475798 9.234602 C 80.937465 10.532935 80.578576 12.733769 80.61552 14.058491 L 86.231076 14.058491 C 85.65052 17.800436 84.60552 24.323769 83.776909 29.14238 Z M 113.411633 9.95238 C 113.121355 12.475158 112.540799 16.327935 111.970799 19.858769 L 106.714132 9.092102 C 104.840521 8.949602 102.465521 9.234602 100.560243 9.883769 C 99.583854 16.834602 98.538854 23.241825 97.493854 29.14238 C 99.583854 29.501269 101.853299 29.221547 102.713577 28.931269 L 104.734966 17.626269 L 110.350521 29.253214 C 111.606633 29.464325 114.493577 29.395714 115.607188 28.99988 L 119.0958 9.160713 C 117.586355 9.023491 115.31691 9.303213 113.411633 9.95238 Z M 128.9283 29.538214 C 136.343578 29.538214 140.697745 24.999325 140.697745 17.372936 C 140.697745 12.654602 137.8583 8.696269 131.693856 8.696269 C 124.241633 8.696269 119.892744 13.22988 119.892744 20.898491 C 119.892744 25.57988 122.695244 29.538214 128.9283 29.538214 Z M 129.894133 24.756547 C 127.413578 24.756547 125.972744 23.094047 125.972744 20.360158 C 125.972744 18.270158 126.542744 16.07988 127.698578 14.021547 C 128.775244 13.625713 129.535244 13.488491 130.6858 13.488491 C 133.171633 13.488491 134.612467 15.140435 134.612467 17.874324 C 134.612467 19.964325 134.031911 22.15988 132.881356 24.207658 C 131.799411 24.603491 131.044689 24.756547 129.894133 24.756547 Z M 146.455801 29.14238 C 148.873023 29.501269 151.13719 29.221547 152.034412 28.85738 L 154.662745 14.058491 L 160.246635 14.058491 C 160.77969 12.733769 161.143857 10.532935 161.106912 9.234602 L 144.149412 9.234602 C 143.616356 10.532935 143.257467 12.733769 143.289134 14.058491 L 148.90469 14.058491 C 148.329412 17.800436 147.279134 24.323769 146.455801 29.14238 Z M 160.246635 28.99988 L 174.713024 28.99988 C 175.214413 27.706825 175.620802 25.511269 175.57858 24.175991 L 166.653857 24.175991 L 167.086635 21.547658 L 174.644413 21.547658 C 175.182746 20.217658 175.541635 18.164602 175.473024 16.871547 L 167.915246 16.871547 L 168.411357 14.058491 L 176.876913 14.058491 C 177.415246 12.733769 177.774135 10.532935 177.737191 9.234602 L 169.356079 9.234602 C 166.543024 9.234602 164.95969 9.450991 163.239135 9.920713 C 162.294412 16.834602 161.249412 23.241825 160.246635 28.99988 Z M 160.246635 28.99988 " stroke="#38b6ff" stroke-width="0.7875" stroke-opacity="1" stroke-miterlimit="4"/><g clip-path="url(#id1)"><path fill="#38b6ff" d="M 24.902344 20.984375 C 24.96875 20.015625 25.152344 15.140625 22.167969 11.933594 C 20.40625 10.042969 17.90625 9.113281 14.726562 9.175781 C 11.550781 9.117188 9.046875 10.042969 7.285156 11.933594 C 4.375 15.058594 4.476562 19.769531 4.546875 20.902344 C 4.503906 21.058594 4.480469 21.226562 4.480469 21.394531 L 4.480469 25.742188 C 4.480469 26.796875 5.34375 27.652344 6.40625 27.652344 L 7.742188 27.652344 C 8.804688 27.652344 9.664062 26.796875 9.664062 25.742188 L 9.664062 21.394531 C 9.664062 20.339844 8.804688 19.488281 7.742188 19.488281 L 6.40625 19.488281 C 6.261719 19.488281 6.121094 19.503906 5.984375 19.53125 C 6.054688 17.800781 6.480469 14.90625 8.347656 12.902344 C 9.820312 11.324219 11.964844 10.550781 14.710938 10.605469 L 14.742188 10.605469 C 17.488281 10.550781 19.632812 11.324219 21.105469 12.902344 C 22.976562 14.90625 23.398438 17.804688 23.46875 19.539062 C 23.328125 19.503906 23.175781 19.488281 23.023438 19.488281 L 21.6875 19.488281 C 20.625 19.488281 19.765625 20.339844 19.765625 21.394531 L 19.765625 25.742188 C 19.765625 26.796875 20.625 27.652344 21.6875 27.652344 L 23.023438 27.652344 C 24.085938 27.652344 24.945312 26.796875 24.945312 25.742188 L 24.945312 21.394531 C 24.945312 21.253906 24.929688 21.117188 24.902344 20.984375 Z M 24.902344 20.984375 " fill-opacity="1" fill-rule="nonzero"/></g><g clip-path="url(#id2)"><path fill="#38b6ff" d="M 4.015625 21.5 L 2.851562 22.175781 L 2.851562 24.761719 L 4.015625 25.515625 " fill-opacity="1" fill-rule="nonzero"/></g><g clip-path="url(#id3)"><path fill="#38b6ff" d="M 25.375 21.5 L 26.535156 22.175781 L 26.535156 24.761719 L 25.375 25.515625 " fill-opacity="1" fill-rule="nonzero"/></g></svg>