<svg xmlns="http://www.w3.org/2000/svg" xmlns:xlink="http://www.w3.org/1999/xlink" width="200" zoomAndPan="magnify" viewBox="0 0 150 37.5" height="50" preserveAspectRatio="xMidYMid meet" version="1.0"><defs><g/><clipPath id="id1"><path d="M 0.988281 0 L 149.011719 0 L 149.011719 37.007812 L 0.988281 37.007812 Z M 0.988281 0 " clip-rule="nonzero"/></clipPath><clipPath id="id2"><path d="M 2.796875 5.972656 L 28.703125 5.972656 L 28.703125 31.878906 L 2.796875 31.878906 Z M 2.796875 5.972656 " clip-rule="nonzero"/></clipPath><clipPath id="id3"><path d="M 15.914062 9.742188 L 13.84375 12.703125 L 9.941406 11.441406 C 9.941406 11.40625 9.941406 11.371094 9.941406 11.332031 C 9.941406 10.347656 9.144531 9.546875 8.15625 9.546875 C 7.171875 9.546875 6.371094 10.347656 6.371094 11.332031 C 6.371094 12.035156 6.773438 12.640625 7.359375 12.933594 L 5.046875 23.839844 C 5.042969 23.839844 5.035156 23.839844 5.03125 23.839844 C 3.796875 23.839844 2.796875 24.839844 2.796875 26.070312 C 2.796875 27.304688 3.796875 28.304688 5.03125 28.304688 C 5.980469 28.304688 6.792969 27.710938 7.117188 26.871094 L 8.53125 27.109375 C 8.773438 27.148438 9.003906 26.984375 9.042969 26.742188 C 9.085938 26.496094 8.921875 26.265625 8.675781 26.226562 L 7.261719 25.992188 C 7.253906 25.75 7.207031 25.515625 7.125 25.300781 L 13.175781 21.554688 C 13.496094 21.863281 13.929688 22.050781 14.410156 22.050781 C 14.820312 22.050781 15.199219 21.914062 15.5 21.679688 L 24.46875 28.652344 C 24.4375 28.714844 24.410156 28.78125 24.382812 28.84375 L 11.355469 26.671875 C 11.113281 26.632812 10.882812 26.796875 10.84375 27.039062 C 10.800781 27.285156 10.964844 27.515625 11.210938 27.554688 L 24.238281 29.726562 C 24.28125 30.921875 25.261719 31.878906 26.46875 31.878906 C 27.703125 31.878906 28.703125 30.878906 28.703125 29.644531 C 28.703125 28.414062 27.703125 27.410156 26.46875 27.410156 C 26.449219 27.410156 26.425781 27.414062 26.40625 27.414062 L 24.714844 20.164062 C 24.660156 19.925781 24.417969 19.773438 24.179688 19.832031 C 23.9375 19.886719 23.789062 20.128906 23.84375 20.367188 L 25.535156 27.617188 C 25.347656 27.703125 25.171875 27.816406 25.015625 27.949219 L 16.050781 20.976562 C 16.144531 20.757812 16.195312 20.515625 16.195312 20.265625 C 16.195312 20.164062 16.1875 20.0625 16.171875 19.960938 L 21.949219 17.363281 C 22.269531 17.761719 22.753906 18.019531 23.300781 18.03125 L 23.53125 19.027344 C 23.589844 19.265625 23.828125 19.417969 24.070312 19.359375 C 24.308594 19.304688 24.457031 19.0625 24.402344 18.824219 L 24.171875 17.828125 C 24.738281 17.53125 25.128906 16.933594 25.128906 16.246094 C 25.128906 15.261719 24.328125 14.460938 23.34375 14.460938 C 23.113281 14.460938 22.894531 14.503906 22.691406 14.582031 L 19.179688 9.71875 C 19.546875 9.320312 19.769531 8.789062 19.769531 8.207031 C 19.769531 6.972656 18.769531 5.972656 17.535156 5.972656 C 16.871094 5.972656 16.269531 6.265625 15.859375 6.730469 C 15.699219 6.914062 15.714844 7.195312 15.902344 7.359375 C 16.085938 7.523438 16.367188 7.503906 16.53125 7.320312 C 16.777344 7.042969 17.136719 6.867188 17.535156 6.867188 C 18.277344 6.867188 18.875 7.46875 18.875 8.207031 C 18.875 8.945312 18.277344 9.546875 17.535156 9.546875 C 16.796875 9.546875 16.195312 8.945312 16.195312 8.207031 C 16.195312 7.960938 15.996094 7.761719 15.75 7.761719 C 15.503906 7.761719 15.304688 7.960938 15.304688 8.207031 C 15.304688 8.800781 15.535156 9.34375 15.914062 9.742188 Z M 26.46875 30.984375 C 25.730469 30.984375 25.128906 30.382812 25.128906 29.644531 C 25.128906 28.90625 25.730469 28.304688 26.46875 28.304688 C 27.207031 28.304688 27.808594 28.90625 27.808594 29.644531 C 27.808594 30.382812 27.207031 30.984375 26.46875 30.984375 Z M 5.03125 27.410156 C 4.289062 27.410156 3.691406 26.8125 3.691406 26.070312 C 3.691406 25.332031 4.289062 24.730469 5.03125 24.730469 C 5.769531 24.730469 6.371094 25.332031 6.371094 26.070312 C 6.371094 26.8125 5.769531 27.410156 5.03125 27.410156 Z M 13.050781 19.105469 L 11.753906 17.25 L 6.652344 24.535156 L 6.65625 24.539062 L 12.703125 20.796875 C 12.652344 20.628906 12.625 20.449219 12.625 20.265625 C 12.625 19.824219 12.785156 19.417969 13.050781 19.105469 Z M 8.78125 13.007812 C 8.609375 13.070312 8.425781 13.109375 8.234375 13.117188 L 5.921875 24.019531 L 11.207031 16.46875 Z M 14.410156 21.160156 C 13.917969 21.160156 13.515625 20.757812 13.515625 20.265625 C 13.515625 19.773438 13.917969 19.371094 14.410156 19.371094 C 14.902344 19.371094 15.304688 19.773438 15.304688 20.265625 C 15.304688 20.757812 14.902344 21.160156 14.410156 21.160156 Z M 18.457031 10.242188 C 18.175781 10.371094 17.863281 10.441406 17.535156 10.441406 C 17.496094 10.441406 17.457031 10.4375 17.417969 10.4375 L 16.601562 13.59375 L 17.226562 13.796875 C 17.460938 13.875 17.589844 14.125 17.515625 14.359375 C 17.4375 14.59375 17.1875 14.722656 16.953125 14.648438 L 16.375 14.460938 L 15.277344 18.703125 C 15.480469 18.816406 15.660156 18.96875 15.804688 19.148438 L 21.582031 16.546875 C 21.566406 16.449219 21.554688 16.347656 21.554688 16.246094 C 21.554688 16.210938 21.554688 16.175781 21.558594 16.136719 L 18.292969 15.082031 C 18.058594 15.003906 17.929688 14.753906 18.003906 14.519531 C 18.078125 14.285156 18.332031 14.15625 18.566406 14.230469 L 21.832031 15.289062 C 21.875 15.222656 21.917969 15.164062 21.96875 15.105469 Z M 14.410156 18.480469 L 15.523438 14.1875 L 14.195312 13.757812 L 12.296875 16.46875 L 13.785156 18.59375 C 13.976562 18.519531 14.1875 18.480469 14.410156 18.480469 Z M 23.34375 17.140625 C 22.847656 17.140625 22.449219 16.738281 22.449219 16.246094 C 22.449219 15.753906 22.847656 15.351562 23.34375 15.351562 C 23.835938 15.351562 24.234375 15.753906 24.234375 16.246094 C 24.234375 16.738281 23.835938 17.140625 23.34375 17.140625 Z M 9.664062 12.289062 C 9.621094 12.363281 9.570312 12.429688 9.515625 12.492188 L 11.753906 15.691406 L 13.308594 13.46875 Z M 14.730469 12.992188 L 15.75 13.320312 L 16.480469 10.492188 Z M 8.15625 12.226562 C 7.664062 12.226562 7.261719 11.824219 7.261719 11.332031 C 7.261719 10.839844 7.664062 10.441406 8.15625 10.441406 C 8.648438 10.441406 9.050781 10.839844 9.050781 11.332031 C 9.050781 11.824219 8.648438 12.226562 8.15625 12.226562 Z M 8.15625 12.226562 " clip-rule="evenodd"/></clipPath><linearGradient x1="0.046875" gradientTransform="matrix(28.58439, 0, 0, 28.58439, 1.457271, -165.9795)" y1="0" x2="0.953125" gradientUnits="userSpaceOnUse" y2="0" id="id4"><stop stop-opacity="1" stop-color="rgb(50.236511%, 87.979126%, 63.847351%)" offset="0"/><stop stop-opacity="1" stop-color="rgb(50.239563%, 87.962341%, 63.957214%)" offset="0.0078125"/><stop stop-opacity="1" stop-color="rgb(50.245667%, 87.928772%, 64.175415%)" offset="0.015625"/><stop stop-opacity="1" stop-color="rgb(50.250244%, 87.895203%, 64.393616%)" offset="0.0234375"/><stop stop-opacity="1" stop-color="rgb(50.256348%, 87.861633%, 64.613342%)" offset="0.03125"/><stop stop-opacity="1" stop-color="rgb(50.262451%, 87.82959%, 64.831543%)" offset="0.0390625"/><stop stop-opacity="1" stop-color="rgb(50.267029%, 87.796021%, 65.049744%)" offset="0.046875"/><stop stop-opacity="1" stop-color="rgb(50.273132%, 87.762451%, 65.26947%)" offset="0.0546875"/><stop stop-opacity="1" stop-color="rgb(50.279236%, 87.728882%, 65.487671%)" offset="0.0625"/><stop stop-opacity="1" stop-color="rgb(50.285339%, 87.695312%, 65.707397%)" offset="0.0703125"/><stop stop-opacity="1" stop-color="rgb(50.289917%, 87.663269%, 65.925598%)" offset="0.078125"/><stop stop-opacity="1" stop-color="rgb(50.296021%, 87.6297%, 66.143799%)" offset="0.0859375"/><stop stop-opacity="1" stop-color="rgb(50.302124%, 87.59613%, 66.363525%)" offset="0.09375"/><stop stop-opacity="1" stop-color="rgb(50.306702%, 87.562561%, 66.581726%)" offset="0.101563"/><stop stop-opacity="1" stop-color="rgb(50.312805%, 87.528992%, 66.799927%)" offset="0.109375"/><stop stop-opacity="1" stop-color="rgb(50.318909%, 87.496948%, 67.019653%)" offset="0.117187"/><stop stop-opacity="1" stop-color="rgb(50.325012%, 87.463379%, 67.237854%)" offset="0.125"/><stop stop-opacity="1" stop-color="rgb(50.32959%, 87.42981%, 67.457581%)" offset="0.132813"/><stop stop-opacity="1" stop-color="rgb(50.335693%, 87.39624%, 67.675781%)" offset="0.140625"/><stop stop-opacity="1" stop-color="rgb(50.341797%, 87.362671%, 67.893982%)" offset="0.148438"/><stop stop-opacity="1" stop-color="rgb(50.346375%, 87.330627%, 68.113708%)" offset="0.15625"/><stop stop-opacity="1" stop-color="rgb(50.352478%, 87.297058%, 68.331909%)" offset="0.164062"/><stop stop-opacity="1" stop-color="rgb(50.358582%, 87.263489%, 68.55011%)" offset="0.171875"/><stop stop-opacity="1" stop-color="rgb(50.364685%, 87.229919%, 68.769836%)" offset="0.179688"/><stop stop-opacity="1" stop-color="rgb(50.369263%, 87.19635%, 68.988037%)" offset="0.1875"/><stop stop-opacity="1" stop-color="rgb(50.375366%, 87.162781%, 69.207764%)" offset="0.195312"/><stop stop-opacity="1" stop-color="rgb(50.38147%, 87.130737%, 69.425964%)" offset="0.203125"/><stop stop-opacity="1" stop-color="rgb(50.386047%, 87.097168%, 69.644165%)" offset="0.210938"/><stop stop-opacity="1" stop-color="rgb(50.392151%, 87.063599%, 69.863892%)" offset="0.21875"/><stop stop-opacity="1" stop-color="rgb(50.398254%, 87.030029%, 70.082092%)" offset="0.226562"/><stop stop-opacity="1" stop-color="rgb(50.404358%, 86.99646%, 70.300293%)" offset="0.234375"/><stop stop-opacity="1" stop-color="rgb(50.408936%, 86.964417%, 70.52002%)" offset="0.242188"/><stop stop-opacity="1" stop-color="rgb(50.415039%, 86.930847%, 70.73822%)" offset="0.25"/><stop stop-opacity="1" stop-color="rgb(50.421143%, 86.897278%, 70.957947%)" offset="0.257812"/><stop stop-opacity="1" stop-color="rgb(50.42572%, 86.863708%, 71.176147%)" offset="0.265625"/><stop stop-opacity="1" stop-color="rgb(50.431824%, 86.830139%, 71.394348%)" offset="0.273438"/><stop stop-opacity="1" stop-color="rgb(50.437927%, 86.798096%, 71.614075%)" offset="0.28125"/><stop stop-opacity="1" stop-color="rgb(50.442505%, 86.764526%, 71.832275%)" offset="0.289062"/><stop stop-opacity="1" stop-color="rgb(50.448608%, 86.730957%, 72.052002%)" offset="0.296875"/><stop stop-opacity="1" stop-color="rgb(50.454712%, 86.697388%, 72.270203%)" offset="0.304688"/><stop stop-opacity="1" stop-color="rgb(50.460815%, 86.663818%, 72.488403%)" offset="0.3125"/><stop stop-opacity="1" stop-color="rgb(50.465393%, 86.631775%, 72.70813%)" offset="0.320312"/><stop stop-opacity="1" stop-color="rgb(50.471497%, 86.598206%, 72.926331%)" offset="0.328125"/><stop stop-opacity="1" stop-color="rgb(50.4776%, 86.564636%, 73.144531%)" offset="0.335938"/><stop stop-opacity="1" stop-color="rgb(50.482178%, 86.531067%, 73.364258%)" offset="0.34375"/><stop stop-opacity="1" stop-color="rgb(50.488281%, 86.497498%, 73.582458%)" offset="0.351562"/><stop stop-opacity="1" stop-color="rgb(50.494385%, 86.465454%, 73.802185%)" offset="0.359375"/><stop stop-opacity="1" stop-color="rgb(50.500488%, 86.431885%, 74.020386%)" offset="0.367188"/><stop stop-opacity="1" stop-color="rgb(50.505066%, 86.398315%, 74.238586%)" offset="0.375"/><stop stop-opacity="1" stop-color="rgb(50.511169%, 86.364746%, 74.458313%)" offset="0.382812"/><stop stop-opacity="1" stop-color="rgb(50.517273%, 86.331177%, 74.676514%)" offset="0.390625"/><stop stop-opacity="1" stop-color="rgb(50.521851%, 86.297607%, 74.894714%)" offset="0.398438"/><stop stop-opacity="1" stop-color="rgb(50.527954%, 86.265564%, 75.114441%)" offset="0.40625"/><stop stop-opacity="1" stop-color="rgb(50.534058%, 86.231995%, 75.332642%)" offset="0.414062"/><stop stop-opacity="1" stop-color="rgb(50.540161%, 86.198425%, 75.552368%)" offset="0.421875"/><stop stop-opacity="1" stop-color="rgb(50.544739%, 86.164856%, 75.770569%)" offset="0.429687"/><stop stop-opacity="1" stop-color="rgb(50.550842%, 86.131287%, 75.98877%)" offset="0.4375"/><stop stop-opacity="1" stop-color="rgb(50.556946%, 86.099243%, 76.208496%)" offset="0.445312"/><stop stop-opacity="1" stop-color="rgb(50.561523%, 86.065674%, 76.426697%)" offset="0.453125"/><stop stop-opacity="1" stop-color="rgb(50.567627%, 86.032104%, 76.644897%)" offset="0.460937"/><stop stop-opacity="1" stop-color="rgb(50.57373%, 85.998535%, 76.864624%)" offset="0.46875"/><stop stop-opacity="1" stop-color="rgb(50.579834%, 85.964966%, 77.082825%)" offset="0.476562"/><stop stop-opacity="1" stop-color="rgb(50.584412%, 85.932922%, 77.302551%)" offset="0.484375"/><stop stop-opacity="1" stop-color="rgb(50.590515%, 85.899353%, 77.520752%)" offset="0.492187"/><stop stop-opacity="1" stop-color="rgb(50.596619%, 85.865784%, 77.738953%)" offset="0.5"/><stop stop-opacity="1" stop-color="rgb(50.601196%, 85.832214%, 77.958679%)" offset="0.507812"/><stop stop-opacity="1" stop-color="rgb(50.6073%, 85.798645%, 78.17688%)" offset="0.515625"/><stop stop-opacity="1" stop-color="rgb(50.613403%, 85.766602%, 78.395081%)" offset="0.523438"/><stop stop-opacity="1" stop-color="rgb(50.619507%, 85.733032%, 78.614807%)" offset="0.53125"/><stop stop-opacity="1" stop-color="rgb(50.624084%, 85.699463%, 78.833008%)" offset="0.539062"/><stop stop-opacity="1" stop-color="rgb(50.630188%, 85.665894%, 79.052734%)" offset="0.546875"/><stop stop-opacity="1" stop-color="rgb(50.636292%, 85.632324%, 79.270935%)" offset="0.554688"/><stop stop-opacity="1" stop-color="rgb(50.640869%, 85.598755%, 79.489136%)" offset="0.5625"/><stop stop-opacity="1" stop-color="rgb(50.646973%, 85.566711%, 79.708862%)" offset="0.570312"/><stop stop-opacity="1" stop-color="rgb(50.653076%, 85.533142%, 79.927063%)" offset="0.578125"/><stop stop-opacity="1" stop-color="rgb(50.65918%, 85.499573%, 80.145264%)" offset="0.585938"/><stop stop-opacity="1" stop-color="rgb(50.663757%, 85.466003%, 80.36499%)" offset="0.59375"/><stop stop-opacity="1" stop-color="rgb(50.669861%, 85.432434%, 80.583191%)" offset="0.601562"/><stop stop-opacity="1" stop-color="rgb(50.675964%, 85.400391%, 80.802917%)" offset="0.609375"/><stop stop-opacity="1" stop-color="rgb(50.680542%, 85.366821%, 81.021118%)" offset="0.617188"/><stop stop-opacity="1" stop-color="rgb(50.686646%, 85.333252%, 81.239319%)" offset="0.625"/><stop stop-opacity="1" stop-color="rgb(50.692749%, 85.299683%, 81.459045%)" offset="0.632812"/><stop stop-opacity="1" stop-color="rgb(50.698853%, 85.266113%, 81.677246%)" offset="0.640625"/><stop stop-opacity="1" stop-color="rgb(50.70343%, 85.23407%, 81.895447%)" offset="0.648437"/><stop stop-opacity="1" stop-color="rgb(50.709534%, 85.2005%, 82.115173%)" offset="0.65625"/><stop stop-opacity="1" stop-color="rgb(50.715637%, 85.166931%, 82.333374%)" offset="0.664062"/><stop stop-opacity="1" stop-color="rgb(50.720215%, 85.133362%, 82.553101%)" offset="0.671875"/><stop stop-opacity="1" stop-color="rgb(50.726318%, 85.099792%, 82.771301%)" offset="0.679687"/><stop stop-opacity="1" stop-color="rgb(50.732422%, 85.067749%, 82.989502%)" offset="0.6875"/><stop stop-opacity="1" stop-color="rgb(50.738525%, 85.03418%, 83.209229%)" offset="0.695312"/><stop stop-opacity="1" stop-color="rgb(50.743103%, 85.00061%, 83.427429%)" offset="0.703125"/><stop stop-opacity="1" stop-color="rgb(50.749207%, 84.967041%, 83.64563%)" offset="0.710937"/><stop stop-opacity="1" stop-color="rgb(50.75531%, 84.933472%, 83.865356%)" offset="0.71875"/><stop stop-opacity="1" stop-color="rgb(50.759888%, 84.901428%, 84.083557%)" offset="0.726562"/><stop stop-opacity="1" stop-color="rgb(50.765991%, 84.867859%, 84.303284%)" offset="0.734375"/><stop stop-opacity="1" stop-color="rgb(50.772095%, 84.83429%, 84.521484%)" offset="0.742188"/><stop stop-opacity="1" stop-color="rgb(50.778198%, 84.80072%, 84.739685%)" offset="0.75"/><stop stop-opacity="1" stop-color="rgb(50.782776%, 84.767151%, 84.959412%)" offset="0.757812"/><stop stop-opacity="1" stop-color="rgb(50.788879%, 84.733582%, 85.177612%)" offset="0.765625"/><stop stop-opacity="1" stop-color="rgb(50.794983%, 84.701538%, 85.395813%)" offset="0.773438"/><stop stop-opacity="1" stop-color="rgb(50.799561%, 84.667969%, 85.61554%)" offset="0.78125"/><stop stop-opacity="1" stop-color="rgb(50.805664%, 84.634399%, 85.83374%)" offset="0.789062"/><stop stop-opacity="1" stop-color="rgb(50.811768%, 84.60083%, 86.053467%)" offset="0.796875"/><stop stop-opacity="1" stop-color="rgb(50.816345%, 84.567261%, 86.271667%)" offset="0.804687"/><stop stop-opacity="1" stop-color="rgb(50.822449%, 84.535217%, 86.489868%)" offset="0.8125"/><stop stop-opacity="1" stop-color="rgb(50.828552%, 84.501648%, 86.709595%)" offset="0.820312"/><stop stop-opacity="1" stop-color="rgb(50.834656%, 84.468079%, 86.927795%)" offset="0.828125"/><stop stop-opacity="1" stop-color="rgb(50.839233%, 84.434509%, 87.145996%)" offset="0.835937"/><stop stop-opacity="1" stop-color="rgb(50.845337%, 84.40094%, 87.365723%)" offset="0.84375"/><stop stop-opacity="1" stop-color="rgb(50.85144%, 84.368896%, 87.583923%)" offset="0.851562"/><stop stop-opacity="1" stop-color="rgb(50.856018%, 84.335327%, 87.80365%)" offset="0.859375"/><stop stop-opacity="1" stop-color="rgb(50.862122%, 84.301758%, 88.021851%)" offset="0.867188"/><stop stop-opacity="1" stop-color="rgb(50.868225%, 84.268188%, 88.240051%)" offset="0.875"/><stop stop-opacity="1" stop-color="rgb(50.874329%, 84.234619%, 88.459778%)" offset="0.882812"/><stop stop-opacity="1" stop-color="rgb(50.878906%, 84.202576%, 88.677979%)" offset="0.890625"/><stop stop-opacity="1" stop-color="rgb(50.88501%, 84.169006%, 88.896179%)" offset="0.898438"/><stop stop-opacity="1" stop-color="rgb(50.891113%, 84.135437%, 89.115906%)" offset="0.90625"/><stop stop-opacity="1" stop-color="rgb(50.895691%, 84.101868%, 89.334106%)" offset="0.914062"/><stop stop-opacity="1" stop-color="rgb(50.901794%, 84.068298%, 89.553833%)" offset="0.921875"/><stop stop-opacity="1" stop-color="rgb(50.907898%, 84.036255%, 89.772034%)" offset="0.929687"/><stop stop-opacity="1" stop-color="rgb(50.914001%, 84.002686%, 89.990234%)" offset="0.9375"/><stop stop-opacity="1" stop-color="rgb(50.918579%, 83.969116%, 90.209961%)" offset="0.945312"/><stop stop-opacity="1" stop-color="rgb(50.924683%, 83.935547%, 90.428162%)" offset="0.953125"/><stop stop-opacity="1" stop-color="rgb(50.930786%, 83.901978%, 90.646362%)" offset="0.960937"/><stop stop-opacity="1" stop-color="rgb(50.935364%, 83.868408%, 90.866089%)" offset="0.96875"/><stop stop-opacity="1" stop-color="rgb(50.941467%, 83.836365%, 91.08429%)" offset="0.976562"/><stop stop-opacity="1" stop-color="rgb(50.947571%, 83.802795%, 91.304016%)" offset="0.984375"/><stop stop-opacity="1" stop-color="rgb(50.953674%, 83.769226%, 91.522217%)" offset="0.992188"/><stop stop-opacity="1" stop-color="rgb(50.958252%, 83.735657%, 91.740417%)" offset="1"/></linearGradient><clipPath id="id5"><path d="M 9 26 L 11 26 L 11 28 L 9 28 Z M 9 26 " clip-rule="nonzero"/></clipPath><clipPath id="id6"><path d="M 10.390625 26.890625 C 10.390625 27.015625 10.347656 27.121094 10.257812 27.207031 C 10.171875 27.292969 10.066406 27.335938 9.941406 27.335938 C 9.820312 27.335938 9.714844 27.292969 9.628906 27.207031 C 9.539062 27.121094 9.496094 27.015625 9.496094 26.890625 C 9.496094 26.765625 9.539062 26.660156 9.628906 26.574219 C 9.714844 26.488281 9.820312 26.445312 9.941406 26.445312 C 10.066406 26.445312 10.171875 26.488281 10.257812 26.574219 C 10.347656 26.660156 10.390625 26.765625 10.390625 26.890625 Z M 10.390625 26.890625 " clip-rule="nonzero"/></clipPath><linearGradient x1="0.28125" gradientTransform="matrix(28.58439, 0, 0, 28.58439, 1.457271, -165.9795)" y1="0" x2="0.3125" gradientUnits="userSpaceOnUse" y2="0" id="id7"><stop stop-opacity="1" stop-color="rgb(50.424194%, 86.877441%, 71.089172%)" offset="0"/><stop stop-opacity="1" stop-color="rgb(50.427246%, 86.859131%, 71.209717%)" offset="0.25"/><stop stop-opacity="1" stop-color="rgb(50.43335%, 86.82251%, 71.452332%)" offset="0.5"/><stop stop-opacity="1" stop-color="rgb(50.439453%, 86.785889%, 71.69342%)" offset="0.75"/><stop stop-opacity="1" stop-color="rgb(50.445557%, 86.749268%, 71.934509%)" offset="1"/></linearGradient></defs><g clip-path="url(#id1)"><path fill="#ffffff" d="M 0.988281 0 L 149.011719 0 L 149.011719 44.40625 L 0.988281 44.40625 Z M 0.988281 0 " fill-opacity="1" fill-rule="nonzero"/><path fill="#ffffff" d="M 0.988281 0 L 149.011719 0 L 149.011719 37.007812 L 0.988281 37.007812 Z M 0.988281 0 " fill-opacity="1" fill-rule="nonzero"/><path fill="#ffffff" d="M 0.988281 0 L 149.011719 0 L 149.011719 37.007812 L 0.988281 37.007812 Z M 0.988281 0 " fill-opacity="1" fill-rule="nonzero"/></g><g fill="#d9d9d9" fill-opacity="0.4196"><g transform="translate(30.974803, 27.126414)"><g><path d="M 12.734375 0 L 10.15625 0 L 8.828125 -11.5 L 2.15625 0 L -0.4375 0 L 8.46875 -15.328125 L 10.953125 -15.328125 Z M 8.6875 -4.875 L 8.890625 -3.1875 L 4.90625 -3.1875 L 5.890625 -4.875 Z M 8.6875 -4.875 "/></g></g></g><g fill="#d9d9d9" fill-opacity="0.4196"><g transform="translate(46.816431, 27.126414)"><g><path d="M 6.25 -15.34375 L 3.140625 -1.890625 L 10.203125 -1.890625 L 9.765625 0 L 0.171875 0 L 3.703125 -15.34375 Z M 6.25 -15.34375 "/></g></g></g><g fill="#d9d9d9" fill-opacity="0.4196"><g transform="translate(59.015343, 27.126414)"><g><path d="M 11.640625 -12.390625 C 11.398438 -12.796875 11.085938 -13.085938 10.703125 -13.265625 C 10.316406 -13.441406 9.894531 -13.53125 9.4375 -13.53125 L 9.359375 -13.53125 L 9.828125 -15.59375 L 9.859375 -15.59375 C 10.679688 -15.59375 11.421875 -15.453125 12.078125 -15.171875 C 12.742188 -14.898438 13.300781 -14.488281 13.75 -13.9375 Z M 1.640625 -7.75 C 1.921875 -8.945312 2.304688 -10.003906 2.796875 -10.921875 C 3.296875 -11.847656 3.859375 -12.632812 4.484375 -13.28125 C 5.117188 -13.925781 5.816406 -14.4375 6.578125 -14.8125 C 7.347656 -15.1875 8.140625 -15.421875 8.953125 -15.515625 L 8.484375 -13.4375 C 8.035156 -13.320312 7.601562 -13.128906 7.1875 -12.859375 C 6.769531 -12.597656 6.375 -12.234375 6 -11.765625 C 5.625 -11.304688 5.28125 -10.75 4.96875 -10.09375 C 4.664062 -9.4375 4.40625 -8.65625 4.1875 -7.75 C 3.988281 -6.84375 3.882812 -6.050781 3.875 -5.375 C 3.875 -4.695312 3.953125 -4.109375 4.109375 -3.609375 C 4.273438 -3.117188 4.5 -2.726562 4.78125 -2.4375 C 5.0625 -2.144531 5.398438 -1.941406 5.796875 -1.828125 L 5.359375 0.0625 C 4.585938 -0.03125 3.90625 -0.269531 3.3125 -0.65625 C 2.726562 -1.039062 2.265625 -1.554688 1.921875 -2.203125 C 1.585938 -2.859375 1.390625 -3.644531 1.328125 -4.5625 C 1.265625 -5.488281 1.367188 -6.550781 1.640625 -7.75 Z M 13.140625 -7.921875 L 11.765625 -1.984375 C 11.347656 -1.578125 10.914062 -1.242188 10.46875 -0.984375 C 10.019531 -0.734375 9.554688 -0.523438 9.078125 -0.359375 C 8.597656 -0.191406 8.117188 -0.0703125 7.640625 0 C 7.160156 0.0703125 6.691406 0.109375 6.234375 0.109375 L 6.203125 0.109375 L 6.625 -1.734375 C 6.789062 -1.734375 7 -1.742188 7.25 -1.765625 C 7.5 -1.785156 7.757812 -1.816406 8.03125 -1.859375 C 8.300781 -1.910156 8.554688 -1.976562 8.796875 -2.0625 C 9.046875 -2.144531 9.242188 -2.265625 9.390625 -2.421875 L 10.265625 -6.203125 L 7.671875 -6.203125 L 8.0625 -7.921875 Z M 13.140625 -7.921875 "/></g></g></g><g fill="#d9d9d9" fill-opacity="0.4196"><g transform="translate(73.837012, 27.126414)"><g><path d="M 1.609375 -7.75 C 1.898438 -8.988281 2.300781 -10.082031 2.8125 -11.03125 C 3.320312 -11.976562 3.921875 -12.78125 4.609375 -13.4375 C 5.296875 -14.101562 6.046875 -14.613281 6.859375 -14.96875 C 7.671875 -15.320312 8.515625 -15.523438 9.390625 -15.578125 L 8.921875 -13.5 C 8.429688 -13.4375 7.945312 -13.285156 7.46875 -13.046875 C 7 -12.816406 6.5625 -12.472656 6.15625 -12.015625 C 5.75 -11.554688 5.367188 -10.972656 5.015625 -10.265625 C 4.671875 -9.554688 4.378906 -8.71875 4.140625 -7.75 C 3.929688 -6.757812 3.832031 -5.914062 3.84375 -5.21875 C 3.863281 -4.519531 3.976562 -3.929688 4.1875 -3.453125 C 4.394531 -2.984375 4.675781 -2.625 5.03125 -2.375 C 5.394531 -2.132812 5.800781 -1.992188 6.25 -1.953125 L 5.765625 0.109375 C 4.929688 0.046875 4.1875 -0.160156 3.53125 -0.515625 C 2.882812 -0.867188 2.367188 -1.375 1.984375 -2.03125 C 1.609375 -2.6875 1.378906 -3.492188 1.296875 -4.453125 C 1.222656 -5.410156 1.328125 -6.507812 1.609375 -7.75 Z M 10.234375 -15.578125 C 11.054688 -15.535156 11.789062 -15.332031 12.4375 -14.96875 C 13.082031 -14.613281 13.597656 -14.101562 13.984375 -13.4375 C 14.367188 -12.78125 14.601562 -11.976562 14.6875 -11.03125 C 14.78125 -10.082031 14.679688 -8.988281 14.390625 -7.75 C 14.109375 -6.507812 13.703125 -5.410156 13.171875 -4.453125 C 12.648438 -3.492188 12.046875 -2.6875 11.359375 -2.03125 C 10.671875 -1.375 9.925781 -0.867188 9.125 -0.515625 C 8.320312 -0.160156 7.484375 0.046875 6.609375 0.109375 L 7.078125 -1.953125 C 7.566406 -2.015625 8.046875 -2.164062 8.515625 -2.40625 C 8.992188 -2.644531 9.4375 -3 9.84375 -3.46875 C 10.25 -3.9375 10.625 -4.519531 10.96875 -5.21875 C 11.320312 -5.914062 11.613281 -6.757812 11.84375 -7.75 C 12.070312 -8.738281 12.175781 -9.582031 12.15625 -10.28125 C 12.132812 -10.976562 12.019531 -11.554688 11.8125 -12.015625 C 11.601562 -12.484375 11.316406 -12.835938 10.953125 -13.078125 C 10.597656 -13.328125 10.195312 -13.472656 9.75 -13.515625 Z M 10.234375 -15.578125 "/></g></g></g><g fill="#d9d9d9" fill-opacity="0.4196"><g transform="translate(89.865978, 27.126414)"><g><path d="M 8.671875 -7.140625 L 8.171875 -5.046875 L 1.546875 -5.046875 L 2.046875 -7.140625 Z M 8.671875 -7.140625 "/></g></g></g><g fill="#d9d9d9" fill-opacity="0.4196"><g transform="translate(100.087413, 27.126414)"><g><path d="M 3.6875 -15.34375 L 6.234375 -15.34375 L 8.171875 -5.875 L 7.265625 -2.015625 L 6.609375 -2.015625 L 5.125 -10.5625 L 2.6875 0 L 0.140625 0 Z M 15.328125 -15.34375 L 17.875 -15.34375 L 14.328125 0 L 11.78125 0 L 14.21875 -10.5625 L 8.8125 -2.015625 L 8.125 -2.015625 L 9.015625 -5.828125 Z M 15.328125 -15.34375 "/></g></g></g><g fill="#d9d9d9" fill-opacity="0.4196"><g transform="translate(118.135485, 27.126414)"><g><path d="M 12.734375 0 L 10.15625 0 L 8.828125 -11.5 L 2.15625 0 L -0.4375 0 L 8.46875 -15.328125 L 10.953125 -15.328125 Z M 8.6875 -4.875 L 8.890625 -3.1875 L 4.90625 -3.1875 L 5.890625 -4.875 Z M 8.6875 -4.875 "/></g></g></g><g fill="#d9d9d9" fill-opacity="0.4196"><g transform="translate(133.977111, 27.126414)"><g><path d="M 3.671875 -15.34375 L 6.171875 -15.34375 L 2.625 0 L 0.125 0 Z M 8.078125 -15.34375 C 8.734375 -15.34375 9.351562 -15.238281 9.9375 -15.03125 C 10.53125 -14.820312 11.03125 -14.507812 11.4375 -14.09375 C 11.851562 -13.675781 12.148438 -13.171875 12.328125 -12.578125 C 12.503906 -11.992188 12.503906 -11.335938 12.328125 -10.609375 C 12.160156 -9.828125 11.867188 -9.117188 11.453125 -8.484375 C 11.035156 -7.859375 10.539062 -7.328125 9.96875 -6.890625 C 9.40625 -6.460938 8.757812 -6.128906 8.03125 -5.890625 C 7.3125 -5.660156 6.550781 -5.546875 5.75 -5.546875 L 4.75 -5.546875 L 5.1875 -7.375 L 6.625 -7.375 C 6.925781 -7.375 7.238281 -7.425781 7.5625 -7.53125 C 7.882812 -7.632812 8.195312 -7.800781 8.5 -8.03125 C 8.800781 -8.269531 9.078125 -8.601562 9.328125 -9.03125 C 9.578125 -9.457031 9.773438 -9.984375 9.921875 -10.609375 C 9.984375 -10.847656 10.015625 -11.128906 10.015625 -11.453125 C 10.015625 -11.785156 9.941406 -12.097656 9.796875 -12.390625 C 9.648438 -12.691406 9.40625 -12.941406 9.0625 -13.140625 C 8.726562 -13.347656 8.242188 -13.453125 7.609375 -13.453125 L 6.578125 -13.453125 L 7.015625 -15.34375 Z M 8.078125 -15.34375 "/></g></g></g><g fill="#81dcbd" fill-opacity="1"><g transform="translate(29.944827, 26.19902)"><g><path d="M 12.734375 0 L 10.15625 0 L 8.828125 -11.5 L 2.15625 0 L -0.4375 0 L 8.46875 -15.328125 L 10.953125 -15.328125 Z M 8.6875 -4.875 L 8.890625 -3.1875 L 4.90625 -3.1875 L 5.890625 -4.875 Z M 8.6875 -4.875 "/></g></g></g><g fill="#81dcbd" fill-opacity="1"><g transform="translate(45.786456, 26.19902)"><g><path d="M 6.25 -15.34375 L 3.140625 -1.890625 L 10.203125 -1.890625 L 9.765625 0 L 0.171875 0 L 3.703125 -15.34375 Z M 6.25 -15.34375 "/></g></g></g><g fill="#81dcbd" fill-opacity="1"><g transform="translate(57.985367, 26.19902)"><g><path d="M 11.640625 -12.390625 C 11.398438 -12.796875 11.085938 -13.085938 10.703125 -13.265625 C 10.316406 -13.441406 9.894531 -13.53125 9.4375 -13.53125 L 9.359375 -13.53125 L 9.828125 -15.59375 L 9.859375 -15.59375 C 10.679688 -15.59375 11.421875 -15.453125 12.078125 -15.171875 C 12.742188 -14.898438 13.300781 -14.488281 13.75 -13.9375 Z M 1.640625 -7.75 C 1.921875 -8.945312 2.304688 -10.003906 2.796875 -10.921875 C 3.296875 -11.847656 3.859375 -12.632812 4.484375 -13.28125 C 5.117188 -13.925781 5.816406 -14.4375 6.578125 -14.8125 C 7.347656 -15.1875 8.140625 -15.421875 8.953125 -15.515625 L 8.484375 -13.4375 C 8.035156 -13.320312 7.601562 -13.128906 7.1875 -12.859375 C 6.769531 -12.597656 6.375 -12.234375 6 -11.765625 C 5.625 -11.304688 5.28125 -10.75 4.96875 -10.09375 C 4.664062 -9.4375 4.40625 -8.65625 4.1875 -7.75 C 3.988281 -6.84375 3.882812 -6.050781 3.875 -5.375 C 3.875 -4.695312 3.953125 -4.109375 4.109375 -3.609375 C 4.273438 -3.117188 4.5 -2.726562 4.78125 -2.4375 C 5.0625 -2.144531 5.398438 -1.941406 5.796875 -1.828125 L 5.359375 0.0625 C 4.585938 -0.03125 3.90625 -0.269531 3.3125 -0.65625 C 2.726562 -1.039062 2.265625 -1.554688 1.921875 -2.203125 C 1.585938 -2.859375 1.390625 -3.644531 1.328125 -4.5625 C 1.265625 -5.488281 1.367188 -6.550781 1.640625 -7.75 Z M 13.140625 -7.921875 L 11.765625 -1.984375 C 11.347656 -1.578125 10.914062 -1.242188 10.46875 -0.984375 C 10.019531 -0.734375 9.554688 -0.523438 9.078125 -0.359375 C 8.597656 -0.191406 8.117188 -0.0703125 7.640625 0 C 7.160156 0.0703125 6.691406 0.109375 6.234375 0.109375 L 6.203125 0.109375 L 6.625 -1.734375 C 6.789062 -1.734375 7 -1.742188 7.25 -1.765625 C 7.5 -1.785156 7.757812 -1.816406 8.03125 -1.859375 C 8.300781 -1.910156 8.554688 -1.976562 8.796875 -2.0625 C 9.046875 -2.144531 9.242188 -2.265625 9.390625 -2.421875 L 10.265625 -6.203125 L 7.671875 -6.203125 L 8.0625 -7.921875 Z M 13.140625 -7.921875 "/></g></g></g><g fill="#81dcbd" fill-opacity="1"><g transform="translate(72.807037, 26.19902)"><g><path d="M 1.609375 -7.75 C 1.898438 -8.988281 2.300781 -10.082031 2.8125 -11.03125 C 3.320312 -11.976562 3.921875 -12.78125 4.609375 -13.4375 C 5.296875 -14.101562 6.046875 -14.613281 6.859375 -14.96875 C 7.671875 -15.320312 8.515625 -15.523438 9.390625 -15.578125 L 8.921875 -13.5 C 8.429688 -13.4375 7.945312 -13.285156 7.46875 -13.046875 C 7 -12.816406 6.5625 -12.472656 6.15625 -12.015625 C 5.75 -11.554688 5.367188 -10.972656 5.015625 -10.265625 C 4.671875 -9.554688 4.378906 -8.71875 4.140625 -7.75 C 3.929688 -6.757812 3.832031 -5.914062 3.84375 -5.21875 C 3.863281 -4.519531 3.976562 -3.929688 4.1875 -3.453125 C 4.394531 -2.984375 4.675781 -2.625 5.03125 -2.375 C 5.394531 -2.132812 5.800781 -1.992188 6.25 -1.953125 L 5.765625 0.109375 C 4.929688 0.046875 4.1875 -0.160156 3.53125 -0.515625 C 2.882812 -0.867188 2.367188 -1.375 1.984375 -2.03125 C 1.609375 -2.6875 1.378906 -3.492188 1.296875 -4.453125 C 1.222656 -5.410156 1.328125 -6.507812 1.609375 -7.75 Z M 10.234375 -15.578125 C 11.054688 -15.535156 11.789062 -15.332031 12.4375 -14.96875 C 13.082031 -14.613281 13.597656 -14.101562 13.984375 -13.4375 C 14.367188 -12.78125 14.601562 -11.976562 14.6875 -11.03125 C 14.78125 -10.082031 14.679688 -8.988281 14.390625 -7.75 C 14.109375 -6.507812 13.703125 -5.410156 13.171875 -4.453125 C 12.648438 -3.492188 12.046875 -2.6875 11.359375 -2.03125 C 10.671875 -1.375 9.925781 -0.867188 9.125 -0.515625 C 8.320312 -0.160156 7.484375 0.046875 6.609375 0.109375 L 7.078125 -1.953125 C 7.566406 -2.015625 8.046875 -2.164062 8.515625 -2.40625 C 8.992188 -2.644531 9.4375 -3 9.84375 -3.46875 C 10.25 -3.9375 10.625 -4.519531 10.96875 -5.21875 C 11.320312 -5.914062 11.613281 -6.757812 11.84375 -7.75 C 12.070312 -8.738281 12.175781 -9.582031 12.15625 -10.28125 C 12.132812 -10.976562 12.019531 -11.554688 11.8125 -12.015625 C 11.601562 -12.484375 11.316406 -12.835938 10.953125 -13.078125 C 10.597656 -13.328125 10.195312 -13.472656 9.75 -13.515625 Z M 10.234375 -15.578125 "/></g></g></g><g fill="#81dcbd" fill-opacity="1"><g transform="translate(88.836003, 26.19902)"><g><path d="M 8.671875 -7.140625 L 8.171875 -5.046875 L 1.546875 -5.046875 L 2.046875 -7.140625 Z M 8.671875 -7.140625 "/></g></g></g><g fill="#81dcbd" fill-opacity="1"><g transform="translate(99.057437, 26.19902)"><g><path d="M 3.6875 -15.34375 L 6.234375 -15.34375 L 8.171875 -5.875 L 7.265625 -2.015625 L 6.609375 -2.015625 L 5.125 -10.5625 L 2.6875 0 L 0.140625 0 Z M 15.328125 -15.34375 L 17.875 -15.34375 L 14.328125 0 L 11.78125 0 L 14.21875 -10.5625 L 8.8125 -2.015625 L 8.125 -2.015625 L 9.015625 -5.828125 Z M 15.328125 -15.34375 "/></g></g></g><g fill="#81dcbd" fill-opacity="1"><g transform="translate(117.10551, 26.19902)"><g><path d="M 12.734375 0 L 10.15625 0 L 8.828125 -11.5 L 2.15625 0 L -0.4375 0 L 8.46875 -15.328125 L 10.953125 -15.328125 Z M 8.6875 -4.875 L 8.890625 -3.1875 L 4.90625 -3.1875 L 5.890625 -4.875 Z M 8.6875 -4.875 "/></g></g></g><g fill="#81dcbd" fill-opacity="1"><g transform="translate(132.947136, 26.19902)"><g><path d="M 3.671875 -15.34375 L 6.171875 -15.34375 L 2.625 0 L 0.125 0 Z M 8.078125 -15.34375 C 8.734375 -15.34375 9.351562 -15.238281 9.9375 -15.03125 C 10.53125 -14.820312 11.03125 -14.507812 11.4375 -14.09375 C 11.851562 -13.675781 12.148438 -13.171875 12.328125 -12.578125 C 12.503906 -11.992188 12.503906 -11.335938 12.328125 -10.609375 C 12.160156 -9.828125 11.867188 -9.117188 11.453125 -8.484375 C 11.035156 -7.859375 10.539062 -7.328125 9.96875 -6.890625 C 9.40625 -6.460938 8.757812 -6.128906 8.03125 -5.890625 C 7.3125 -5.660156 6.550781 -5.546875 5.75 -5.546875 L 4.75 -5.546875 L 5.1875 -7.375 L 6.625 -7.375 C 6.925781 -7.375 7.238281 -7.425781 7.5625 -7.53125 C 7.882812 -7.632812 8.195312 -7.800781 8.5 -8.03125 C 8.800781 -8.269531 9.078125 -8.601562 9.328125 -9.03125 C 9.578125 -9.457031 9.773438 -9.984375 9.921875 -10.609375 C 9.984375 -10.847656 10.015625 -11.128906 10.015625 -11.453125 C 10.015625 -11.785156 9.941406 -12.097656 9.796875 -12.390625 C 9.648438 -12.691406 9.40625 -12.941406 9.0625 -13.140625 C 8.726562 -13.347656 8.242188 -13.453125 7.609375 -13.453125 L 6.578125 -13.453125 L 7.015625 -15.34375 Z M 8.078125 -15.34375 "/></g></g></g><g clip-path="url(#id2)"><g clip-path="url(#id3)"><path fill="url(#id4)" d="M 2.796875 5.972656 L 2.796875 31.878906 L 28.703125 31.878906 L 28.703125 5.972656 Z M 2.796875 5.972656 " fill-rule="nonzero"/></g></g><g clip-path="url(#id5)"><g clip-path="url(#id6)"><path fill="url(#id7)" d="M 9.496094 26.445312 L 9.496094 27.335938 L 10.390625 27.335938 L 10.390625 26.445312 Z M 9.496094 26.445312 " fill-rule="nonzero"/></g></g></svg>